# xmcd
#
# Track frame offsets: 
#        150
#        16585
#        33827
#        60257
#        74022
#        91840
#        105595
#        119170
#        135630
#        155895
#        181495
#        201052
#        221215
#
# Disc length: 3112 seconds
#
# Revision: 0
# Processed by: cddbd v1.5.2PL0 Copyright (c) Steve Scherf et al.
# Submitted via: ExactAudioCopy v0.99pb4
#
DISCID=b80c260d
DTITLE=Bruce Breece - Sell the lap dog
DYEAR=1991
DGENRE=Blues
TTITLE0=Bad Boy
TTITLE1=Can't Hold Out
TTITLE2=Last Night
TTITLE3=Sellingest Man
TTITLE4=Lap Dog Blues
TTITLE5=I'm Cryin'
TTITLE6=21st Century Blues
TTITLE7=Pot Shot Shuffle
TTITLE8=Mr. Control
TTITLE9=I Smell Trouble
TTITLE10=Scratch My Back
TTITLE11=Sugar Coated Love
TTITLE12=Lipstick, Powder and Pain
EXTD=
EXTT0=
EXTT1=
EXTT2=
EXTT3=
EXTT4=
EXTT5=
EXTT6=
EXTT7=
EXTT8=
EXTT9=
EXTT10=
EXTT11=
EXTT12=
PLAYORDER=
